PathFileType	4	(X/Y/Z)	27_2_96_p1_0-1261_filt_butterworth.trc
DataRate	CameraRate	NumFrames	NumMarkers	Units	OrigDataRate	OrigDataStartFrame	OrigNumFrames
54.0	54.0	6	27	m	54.0	630	1261
Frame#	Time	RHip			RKnee			RAnkle			RBigToe			RSmallToe			RHeel			LHip			LKnee			LAnkle			LBigToe			LSmallToe			LHeel			Neck			Head			Nose			RShoulder			RElbow			RWrist			RThumb			RIndex			RPinky			LShoulder			LElbow			LWrist			LThumb			LIndex			LPinky			
		X1	Y1	Z1	X2	Y2	Z2	X3	Y3	Z3	X4	Y4	Z4	X5	Y5	Z5	X6	Y6	Z6	X7	Y7	Z7	X8	Y8	Z8	X9	Y9	Z9	X10	Y10	Z10	X11	Y11	Z11	X12	Y12	Z12	X13	Y13	Z13	X14	Y14	Z14	X15	Y15	Z15	X16	Y16	Z16	X17	Y17	Z17	X18	Y18	Z18	X19	Y19	Z19	X20	Y20	Z20	X21	Y21	Z21	X22	Y22	Z22	X23	Y23	Z23	X24	Y24	Z24	X25	Y25	Z25	X26	Y26	Z26	X27	Y27	Z27	
630	11.666666666666666	0.1316585501384501	0.7967340092649924	0.75258430888813	0.13410042610954095	0.3879326229743253	0.7440018774445105	0.15413588803159858	-0.027953709705353047	0.8154008625939028	0.1299273350977836	-0.0143014771834956	0.613294601214295	0.18098740110448205	0.009028940376384784	0.6069199864434043	0.15360125701724472	-0.09830713483287158	0.8936115406145388	-0.05982954151312692	0.7959495418285693	0.735608708916236	-0.04943578306779738	0.39541590345108346	0.7830649464460213	-0.03467787657192894	-0.02724285767870023	0.8169753434967459	-0.030889264625947002	0.01326691026090955	0.6027218537814029	-0.08173785944462247	-0.012853933033346032	0.6564730704257239	-0.010690195569514574	-0.07430261624906251	0.8612263706680356	0.03411378690165139	1.3268859113490734	0.7424855363600436	0.019253695823440248	1.5814430841700855	0.7079760831371477	0.031251456919804244	1.4568748827101048	0.57877672739321	0.1602750625200834	1.2475055779847437	0.734233067664315	0.24934016152915792	0.9775708604564282	0.8003572893463642	0.20732939963438868	0.8287006070620186	0.6307832505137726	0.12344557230979253	0.7328221208125443	0.5856750403331239	0.14011836170763564	0.705536178240067	0.5720654821324475	0.1969569609549045	0.693869798886905	0.5777822943344024	-0.11402360052354031	1.2300272187417363	0.7898155345404284	-0.1696977509028471	1.0175711600233939	0.7739645283891092	-0.13660459912042566	0.8363413747088864	0.6493435661065778	-0.08316568444391202	0.756656959546257	0.5839984938801807	-0.09695587693396959	0.7358987628300028	0.5741566355501059	-0.17034935067480322	0.7316125391713549	0.605700011588113	
631	11.685185185185183	0.1320110709438086	0.7951223057509933	0.7534254502182738	0.13405275878675596	0.3872071272948672	0.7444113040732563	0.15414731328199696	-0.02762780596507776	0.8148604841978437	0.12998947334012095	-0.01424146109698006	0.6133687607164654	0.18096816611316058	0.009159413257073076	0.6065754065178015	0.15352605522770854	-0.09846923608336394	0.8935935309728712	-0.06033905560570289	0.79465598053197	0.7351725102929187	-0.04947232656744377	0.39454555099785105	0.78332615466398	-0.03466056354127757	-0.027853574762940356	0.8171065172403567	-0.03090376870952799	0.013263464331287916	0.6026299127685376	-0.08194831969269642	-0.013829775035630543	0.6564239627451808	-0.010782694315090397	-0.07418301194533947	0.8610346412593067	0.03494899553382659	1.3269729526270058	0.742472523388234	0.01916064990033075	1.5809847401575197	0.7074427811846938	0.03167485944919989	1.4554092947861428	0.5800413981327087	0.16019716421513452	1.2482403997961586	0.7343904552637954	0.24937991060275677	0.9779402355974901	0.8006523804723674	0.20984326889520294	0.832210730467148	0.6228432519319234	0.11797223082240155	0.7422340026949399	0.5810270261423125	0.13167390459391104	0.7129666583151308	0.5744649427336301	0.18484512420844057	0.6942591972804372	0.5780027883834379	-0.11401810114996522	1.230708874766636	0.7898696711941597	-0.17045716988597037	1.0174324825413468	0.7767192513687556	-0.13698995488836352	0.8384729956435486	0.646614022475529	-0.0815611532922251	0.761002375045347	0.583904728875123	-0.09826111257402659	0.7415727696882233	0.5650182977818745	-0.16956499277464396	0.7337782402757429	0.6024099218500703	
632	11.703703703703704	0.1320834352613741	0.7934031904279983	0.7533695177431163	0.13408529465479999	0.386445843365428	0.7449737014938246	0.1541867613567023	-0.0274837645926833	0.8146044890397941	0.12998511793343087	-0.014213286057071672	0.6134034403481204	0.1810312545521462	0.009235461338116716	0.6062692535030527	0.15345042833703165	-0.0985853318604432	0.8935607833913926	-0.06119219846199641	0.7931933982946959	0.7352597902237944	-0.04959219091447716	0.3928720699513821	0.7839544066966546	-0.0346460545428831	-0.028573598908411116	0.8172314236817719	-0.03091224841508602	0.013277809579875358	0.6025508186702737	-0.08213421126270223	-0.014727986046783922	0.656350578574637	-0.010810870369100431	-0.07431237045000046	0.8608913855874398	0.035749999216388724	1.327068649024311	0.7424600424360206	0.018530042301510903	1.5805345151337418	0.7054884408144133	0.03198238712208616	1.453465223939992	0.5801517853733784	0.16014327724807015	1.2488098193572177	0.7345598990355501	0.2491416880594522	0.97928871526188	0.8005071622762016	0.21269659783835404	0.8354902949839691	0.6163745483425707	0.11286545487704663	0.7518959090615728	0.5756804605880638	0.12411735431161977	0.7200004966931887	0.5763099516250543	0.1724199335658365	0.6952845461611286	0.5767666994551467	-0.11395968007623013	1.2309391745019274	0.7899114551878987	-0.17102501665540257	1.0170741324150916	0.7789595056291869	-0.13810068571272424	0.8391324506797503	0.6454552709186131	-0.08132229818514303	0.7640580933275058	0.5827957004583985	-0.10314170057966085	0.7474813509025504	0.5520449791062699	-0.17004747377480522	0.7347268340131509	0.5995689549700807	
633	11.72222222222222	0.13207449829948248	0.7914889308923964	0.7530738671747734	0.13422458517912267	0.3856503657099835	0.7456587461014156	0.15425673459474698	-0.02746749122305886	0.8145915356707694	0.12984777125226976	-0.01419112680550108	0.6132962596575279	0.181211099240913	0.009145561419666007	0.6065328787194058	0.1533698916447875	-0.09868036203267411	0.8935136435374422	-0.06222581850554471	0.7915277704581283	0.7359806572591664	-0.04979234079026564	0.39049293292142206	0.7847326499388388	-0.034651386433287114	-0.02938163474173469	0.8173428938511812	-0.03091541258693629	0.013297872779605438	0.602509892241922	-0.08228340508438071	-0.01540227795499928	0.6562802167228866	-0.010821834980126495	-0.07464444258130665	0.8607683942154495	0.03641826523220496	1.327011854788788	0.742411877503989	0.017401537551011537	1.579953104828455	0.7021840281628673	0.03227784812927824	1.4514054763960997	0.5789731911000886	0.1601316040353682	1.2491213304104594	0.7347061711136625	0.24879476918621896	0.9815880525619836	0.8003603475621903	0.21629891552415953	0.8375897922675811	0.6130254825433942	0.1097086107792834	0.7592406460354817	0.5714094566789708	0.11931860958670826	0.7252517743257466	0.5770611850907383	0.16273508480658724	0.6950885184955315	0.5772149387809572	-0.11387838262225652	1.2308070799803055	0.7898883407885318	-0.17138124784162911	1.01679426668008	0.7803505233356708	-0.1402393485576776	0.838043725105638	0.6464086499349128	-0.08290745727163845	0.7656161872346146	0.5798086079277641	-0.11126101749910375	0.7528825982599252	0.5373330026986345	-0.17181917197057128	0.7342679645580105	0.5973864710733242	
634	11.74074074074074	0.13221421404680817	0.7893820779904381	0.7531590439510153	0.13447466666908534	0.38471543645156847	0.7464648412729259	0.1543741216951104	-0.027474114300232888	0.8147084379805328	0.1296219178898231	-0.014189718839709875	0.6130807458746196	0.18149916527518373	0.008826752352669734	0.6077008057220699	0.15328268487713537	-0.09876353004340165	0.8934562804499634	-0.06321263724987684	0.7896884605865666	0.7371031422595294	-0.050033956668567886	0.3877525289673307	0.7854459549978278	-0.034671402998489975	-0.0302510213179064	0.8174249465393214	-0.030915411331789343	0.01331870168569825	0.6025104452590371	-0.08237838242721587	-0.015732449596075962	0.6562685058484611	-0.010854637185187884	-0.07513434279632017	0.8606350891595014	0.036851050638467595	1.3267110348697948	0.7423116791237124	0.015914667902846062	1.579223005006816	0.6978452698812604	0.03254557730778786	1.449569808124941	0.5766330927934091	0.1601725882438521	1.2491579643049828	0.7347950811084477	0.24846551561292052	0.9844111072412077	0.8003609050696279	0.22059629127609345	0.8381707906085321	0.6126831315960882	0.10941102403407146	0.762399833213171	0.5696462706442667	0.11859233665980895	0.7277651603413009	0.5762756593509729	0.15808831252721423	0.6927767545578171	0.5814647962362764	-0.11380039101083472	1.230543492254008	0.7898183780047172	-0.1715597984552027	1.0168183718215473	0.7806055972777701	-0.14358910475631986	0.8348997688738946	0.6494924076267852	-0.08650070650066459	0.7660852113251234	0.5742042576306485	-0.1215670232742746	0.7568518704033981	0.5244673328093847	-0.17477281801453748	0.7329302772145634	0.595081191432842	
635	11.75925925925926	0.13263840054888254	0.7872050227898268	0.7537937257174423	0.13481819426674616	0.3836142718530667	0.7473892163132863	0.15456183327731238	-0.027473224463274312	0.8148695627054862	0.12938935905526475	-0.014234148511070466	0.6128550122294105	0.181933448224053	0.008278765011886444	0.6096680839370379	0.15319456158111033	-0.0988272662271711	0.8933928482394654	-0.06406738834981437	0.7878324652925285	0.7383262305491958	-0.05026677406176057	0.38510418196821705	0.7860181679301812	-0.03467811466366639	-0.031152574556811335	0.8174614149111398	-0.030910442802995177	0.013332981107118613	0.6025431048971632	-0.08240615759313276	-0.015709349499012065	0.65633590401188	-0.01091343580382754	-0.07576927152050861	0.8604919253727764	0.037019491604913426	1.326179707496358	0.7421843398060375	0.014248524106165988	1.5784352206916035	0.6929179036976089	0.03268892332339708	1.4482321617646363	0.5733584037925255	0.16025744281924592	1.2490251645905555	0.7348271762041991	0.24816758446460402	0.9872852828545994	0.8004097750002512	0.22527991807334238	0.8374737811067638	0.6140669307329024	0.11235382848017836	0.7608997253324052	0.5706040171012623	0.12238982729491835	0.7273614887604698	0.5729883978206394	0.15973725371292846	0.6889730922098067	0.5893268500862081	-0.1137408316974047	1.230340345558562	0.7897598246545204	-0.1717330006062699	1.0170922063890784	0.7798556682980878	-0.14811726738214467	0.829910592921365	0.6539356414236606	-0.0923601650797443	0.7658394615082215	0.5662626686606751	-0.1327198630872504	0.7584167607640763	0.5172033603287324	-0.17902843591307288	0.7310707037174318	0.5925712415925235	
